<svg xmlns="http://www.w3.org/2000/svg" version="1.1" xmlns:xlink="http://www.w3.org/1999/xlink" xmlns:svgjs="http://svgjs.dev/svgjs" width="128" height="128" viewBox="0 0 128 128"><g transform="matrix(0.8046875,0,0,0.8046875,12.221578124999994,26.45751579727049)"><svg viewBox="0 0 96 70" data-background-color="#ffffff" preserveAspectRatio="xMidYMid meet" height="93" width="128" xmlns="http://www.w3.org/2000/svg" xmlns:xlink="http://www.w3.org/1999/xlink"><g id="tight-bounds" transform="matrix(1,0,0,1,0.25950000000000273,0.11646919892018559)"><svg viewBox="0 0 95.481 69.76706160215961" height="69.76706160215961" width="95.481"><g><svg viewBox="0 0 95.481 69.76706160215961" height="69.76706160215961" width="95.481"><g><svg viewBox="0 0 95.481 69.76706160215961" height="69.76706160215961" width="95.481"><g id="textblocktransform"><svg viewBox="0 0 95.481 69.76706160215961" height="69.76706160215961" width="95.481" id="textblock"><g><svg viewBox="0 0 95.481 69.76706160215961" height="69.76706160215961" width="95.481"><g><svg viewBox="0 0 95.481 69.76706160215961" height="69.76706160215961" width="95.481"><g><svg xmlns="http://www.w3.org/2000/svg" xmlns:xlink="http://www.w3.org/1999/xlink" version="1.1" x="0" y="0" viewBox="9.996617453782665 24.48382698769275 80.08638254621734 58.5183605596513" enable-background="new 0 0 100 100" xml:space="preserve" height="69.76706160215961" width="95.481" class="icon-icon-0" data-fill-palette-color="accent" id="icon-0"><g fill="#000000" data-fill-palette-color="accent"><path d="M53.191 42.798C53.246 42.85 53.302 42.901 53.359 42.952 53.584 42.958 53.755 42.977 53.846 42.99 53.886 42.928 53.928 42.857 53.965 42.783 53.915 42.649 53.707 42.61 53.191 42.798" fill="#000000" data-fill-palette-color="accent"></path><path d="M50.701 34.228C49.664 34.687 48.089 35.426 46.869 36.205L47.001 36.354C48.238 35.519 49.535 34.763 50.851 34.168z" fill="#000000" data-fill-palette-color="accent"></path><path d="M49.338 45.193L49.494 45.003A3.65 3.65 0 0 1 50.888 43.526 0.6 0.6 0 0 1 50.78 43.43C50.779 43.431 50.196 42.785 49.338 45.193" fill="#000000" data-fill-palette-color="accent"></path><path d="M65.445 55.938C65.178 56.517 64.833 57.215 64.498 57.758 64.632 57.72 64.747 57.689 64.846 57.664z" fill="#000000" data-fill-palette-color="accent"></path><path d="M89.8 70.463S89.822 68.749 88.681 67.796C88.681 67.796 87.538 64.771 84.228 63.866 84.228 63.866 74.511 61.104 72.797 59.246L73.152 58.89 71.083 57.389 70.775 57.608 68.796 55.991V55.747L66.581 54.15 66.574 54.168 66.336 53.972 66.401 53.676 64.186 51.389 63.156 51.338 62.851 51.084 63.044 50.604S61.578 48.817 61.473 48.138C61.473 48.138 59.664 47.519 58.971 47.817L58.995 47.844A362 362 0 0 1 56.931 46.079L56.316 46.54 51.422 49.37 52.922 46.289 53.294 45.731C52.688 45.908 51.993 47.29 51.993 47.29 49.542 51.277 43.779 54.647 43.779 54.647 41.277 54.577 41.635 52.29 41.635 52.29L44.633 50.433C44.696 50.397 44.777 50.335 44.869 50.257L42.491 48.72S40.347 51.075 38.989 51.505C38.989 51.505 36.133 51.649 36.49 48.861 36.49 48.861 37.252 48.075 37.585 48.861 37.585 48.861 37.347 49.6 38.11 49.004 38.11 49.004 39.705 44.981 44.254 42.909 44.254 42.909 46.671 42.963 48.777 40.789 48.777 40.789 49.49 40.335 50.634 40.183 50.634 40.183 53.58 39.555 54.894 40.636 54.894 40.636 54.742 41.896 55.707 42.502L55.618 43.122 55.646 43.101 55.79 42.101C54.826 41.493 54.978 40.234 54.978 40.234 53.664 39.153 50.718 39.78 50.718 39.78 50.496 39.809 50.291 39.85 50.105 39.898A16 16 0 0 1 49.352 39.077C52.514 37.536 54.719 35.565 54.719 35.565 54.719 33.742 53.362 31.957 53.362 31.957 51.861 30.956 49.897 31.957 49.897 31.957S49.313 30.434 49.217 29.956C49.217 29.956 46.685 31.09 43.71 32.835 42.774 31.906 41.939 31.171 41.412 30.91 41.412 30.91 37.977 26.146 35.406 24.526 35.406 24.526 32.643 23.67 26.451 29.671 26.451 29.671 26.166 29.829 25.928 31.512 25.928 31.512 25.784 31.385 16.069 30.242 16.069 30.242 10.925 29.386 11.353 34.815 11.353 34.815 12.784 40.958 11.925 50.532 11.925 50.532 10.36 56.915 11.586 63.882 7.232 72.483 13.204 76.023 13.204 76.023 17.741 80.462 33.146 81.214 34.702 81.28 34.702 81.281 34.704 81.282 34.704 81.285 34.704 81.285 38.167 82.163 38.752 82.163 38.752 82.163 39.395 81.877 39.055 81.187L34.833 80.213C31.697 77.966 29.768 77.696 29.768 77.696 15.319 76.527 13.782 71.298 13.782 71.298A6 6 0 0 1 13.348 69.306C14.286 70.878 15.896 72.596 18.522 72.822 18.522 72.822 42.342 76.394 48.067 79.967 48.067 79.967 73.507 88.969 90.083 75.967V70.535zM28.456 48.242S19.143 56.89 16.714 60.389C16.714 60.389 11.31 66.284 13.119 70.951 13.119 70.951 15.533 76.68 28.774 77.825 28.774 77.825 31.253 77.91 34.606 80.32L38.917 81.275C39.292 81.841 38.637 81.942 38.637 81.942 38.066 81.942 34.447 81.076 34.447 81.076S18.358 80.211 13.715 75.891C13.715 75.891 4.355 70.819 17.073 56.889 17.073 56.889 30.122 43.593 33.076 43.117 33.076 43.117 34.448 42.897 34.353 44.743 34.353 44.744 32.646 46.204 28.456 48.242M34.659 41.503C36.945 36.095 49.137 30.643 49.137 30.643 49.195 30.935 49.437 31.622 49.616 32.108 50.32 31.896 51.465 31.719 52.424 32.358 52.424 32.358 53.781 34.144 53.781 35.967 53.781 35.967 50.732 38.692 46.66 40.24 46.66 40.24 43.541 42.359 43.065 43.003 43.065 43.003 39.897 44.431 38.873 46.288L37.518 44.932S41.711 39.924 47.002 36.354C46.959 36.305 46.914 36.253 46.87 36.205 48.09 35.427 49.665 34.687 50.702 34.228 49.89 34.564 45.976 36.215 44.613 37.622L44.009 36.97C41.535 38.51 36.849 43.396 36.849 43.396 35.896 43.192 34.659 41.503 34.659 41.503M47.494 57.791V56.577C46.778 57.861 46.656 56.577 46.656 56.577 52.105 47.503 57.567 47.074 57.567 47.074L58.716 48.18C59.473 47.98 61.103 48.538 61.103 48.538 61.21 49.217 62.674 51.002 62.674 51.002L62.387 51.717C61.786 51.698 59.068 52.962 59.068 52.962 58.138 53.989 55.067 57.36 55.067 57.36L52.611 56.075C54.729 53.359 57.644 51.217 57.644 51.217 58.621 50.521 59.15 50.086 59.431 49.816L59.138 49.86C57.853 49.074 55.494 51.219 55.494 51.219 53.065 52.791 49.708 57.182 49.708 57.182 48.066 59.22 47.494 57.791 47.494 57.791M56.942 63.435C57.253 62.02 58.262 60.904 59.471 60.039 59.239 60.123 59.072 60.188 58.994 60.221L62.907 53.664 60.851 56.792C58.851 60.148 54.064 61.007 54.064 61.007 52.279 61.292 52.35 60.077 52.35 60.077 53.065 60.292 58.316 54.647 58.316 54.647 60.182 53.244 61.901 52.635 62.492 52.454L62.387 52.005 63.818 52.076 66.031 54.363 65.98 54.593 68.14 56.147V56.719L66.782 61.17 64.211 63.792 63.067 62.792 63.725 60.898 58.709 63.934C57.354 64.721 56.942 63.435 56.942 63.435M72.14 59.648S67.712 66.435 63.926 67.006H63.425V66.221L62.712 66.363S61.641 66.293 69.927 58.147L70.426 57.791 72.499 59.291z" fill="#000000" data-fill-palette-color="accent"></path><path d="M52.796 42.963C53.007 42.948 53.196 42.946 53.359 42.952L53.191 42.798A7 7 0 0 0 52.796 42.963" fill="#000000" data-fill-palette-color="accent"></path><path d="M53.924 43.003L53.953 43.019C53.981 42.929 53.991 42.846 53.966 42.784A2 2 0 0 1 53.847 42.991z" fill="#000000" data-fill-palette-color="accent"></path><polygon points="55.43,43.597 56.389,43.109 57.695,45.379 58.115,45.065 56.759,42.709 55.596,43.299 55.566,43.502  " fill="#000000" data-fill-palette-color="accent"></polygon><polygon points="63.23,53.123 63.281,53.035 63.19,53.066  " fill="#000000" data-fill-palette-color="accent"></polygon></g></svg></g></svg></g></svg></g></svg></g></svg></g><g></g></svg></g><defs></defs></svg><rect width="95.481" height="69.76706160215961" fill="none" stroke="none" visibility="hidden"></rect></g></svg></g></svg>