<svg xmlns="http://www.w3.org/2000/svg" version="1.1" viewBox="1.3981633186340332 1.3025034666061401 542.47802734375 396.1816711425781" width="546.00" height="400.00">
<g stroke-width="2.00" fill="none" stroke-linecap="butt">
<path stroke="#1b1b1b" d="&#10;  M 333.18 149.33&#10;  Q 332.71 150.56 330.05 149.87&#10;  Q 329.55 149.74 329.45 149.23&#10;  Q 328.40 144.10 324.90 140.44&#10;  C 322.78 138.22 322.02 135.44 319.75 133.59&#10;  Q 314.52 129.34 309.77 125.36&#10;  Q 307.32 123.31 305.12 120.49&#10;  Q 302.18 116.72 300.70 115.31&#10;  Q 299.44 114.11 298.95 112.42&#10;  Q 298.93 112.34 297.84 109.19&#10;  Q 296.97 106.66 295.62 104.60&#10;  Q 293.43 101.26 289.63 94.85&#10;  Q 286.57 89.67 280.77 86.85&#10;  Q 278.84 85.92 276.80 86.44&#10;  Q 275.53 86.77 272.46 87.13&#10;  Q 272.03 87.18 272.10 87.60&#10;  Q 272.15 87.91 271.75 88.08&#10;  A 0.33 0.33 0.0 0 0 271.71 88.67&#10;  Q 274.58 90.40 277.22 92.23&#10;  Q 281.35 95.09 284.10 98.37&#10;  Q 284.73 99.12 284.87 100.04"/>
<path stroke="#727172" stroke-opacity="0.902" d="&#10;  M 284.87 100.04&#10;  Q 284.92 100.31 284.88 100.49&#10;  Q 284.74 101.03 284.26 100.74&#10;  Q 282.94 99.92 282.29 98.96&#10;  Q 278.30 93.12 272.11 90.65&#10;  Q 269.39 89.56 265.46 88.55&#10;  Q 263.10 87.95 261.12 88.63&#10;  Q 250.02 92.43 239.47 98.71&#10;  Q 237.35 99.97 231.74 103.47&#10;  C 223.87 108.38 217.30 114.52 209.30 120.08&#10;  Q 206.34 122.14 205.11 123.62&#10;  Q 202.87 126.32 199.37 129.44&#10;  A 2.37 2.37 0.0 0 0 198.99 132.55&#10;  Q 200.87 135.31 205.08 140.14&#10;  Q 206.46 141.72 207.81 142.54&#10;  Q 210.27 144.03 211.24 144.08&#10;  Q 216.11 144.33 220.88 144.08&#10;  Q 222.47 143.99 223.20 142.59&#10;  Q 229.13 131.21 238.87 123.12&#10;  Q 249.08 114.62 259.25 109.81&#10;  Q 261.58 108.71 262.36 108.57&#10;  Q 272.45 106.75 272.96 106.65&#10;  Q 279.44 105.37 281.69 103.94&#10;  Q 283.96 102.50 286.02 101.18"/>
<path stroke="#1b1b1b" d="&#10;  M 286.02 101.18&#10;  Q 289.94 110.51 296.35 117.33&#10;  Q 298.95 120.10 300.29 121.79&#10;  Q 301.86 123.77 304.69 126.56&#10;  Q 308.99 130.81 310.94 132.40&#10;  Q 314.48 135.29 316.67 138.04&#10;  Q 320.19 142.48 322.16 146.59&#10;  C 323.10 148.55 322.57 150.12 322.72 151.98&#10;  Q 322.76 152.51 323.29 152.48&#10;  Q 326.95 152.25 330.13 153.31"/>
<path stroke="#2e2c2e" d="&#10;  M 330.13 153.31&#10;  L 325.11 155.21&#10;  A 0.34 0.34 0.0 0 0 325.15 155.86&#10;  Q 326.20 156.09 327.03 155.58&#10;  Q 327.43 155.33 327.91 155.35&#10;  L 333.70 155.64"/>
<path stroke="#1b1b1b" d="&#10;  M 333.70 155.64&#10;  Q 334.23 156.28 333.51 157.12"/>
<path stroke="#2e2c2e" d="&#10;  M 333.51 157.12&#10;  Q 327.55 156.89 323.52 157.76&#10;  Q 322.34 158.01 321.51 159.59&#10;  Q 321.23 160.12 321.81 159.99&#10;  Q 328.87 158.41 335.20 158.87&#10;  Q 344.87 159.56 354.08 165.53&#10;  Q 358.63 168.48 360.79 174.55&#10;  Q 362.44 179.20 362.67 183.94"/>
<path stroke="#727172" stroke-opacity="0.902" d="&#10;  M 362.67 183.94&#10;  Q 360.42 175.35 359.15 172.88&#10;  Q 357.18 169.01 353.61 166.68&#10;  Q 340.36 158.02 325.05 160.40&#10;  Q 324.93 160.42 322.23 160.52&#10;  Q 319.73 160.61 318.39 162.90&#10;  Q 315.71 167.47 312.84 170.34&#10;  Q 308.55 174.64 303.35 178.34&#10;  Q 300.99 180.02 296.38 181.55&#10;  Q 289.59 183.80 285.05 184.47&#10;  Q 273.64 186.14 269.07 187.45&#10;  Q 265.47 188.48 264.22 188.96&#10;  C 262.09 189.79 259.99 191.82 259.08 194.36&#10;  Q 256.28 202.19 260.54 208.83&#10;  Q 261.82 210.82 264.92 213.78&#10;  Q 268.38 217.07 270.00 218.07&#10;  Q 274.85 221.09 284.02 221.85&#10;  C 287.07 222.11 289.79 220.60 292.90 220.22&#10;  Q 295.51 219.90 298.14 218.44&#10;  Q 302.22 216.16 302.84 215.33&#10;  Q 306.57 210.33 307.68 209.18&#10;  Q 311.08 205.63 319.53 198.28&#10;  Q 324.51 193.95 333.39 191.37&#10;  Q 336.71 190.40 343.77 190.08&#10;  Q 351.76 189.72 354.22 189.02&#10;  Q 358.80 187.71 360.10 187.63&#10;  Q 361.42 187.56 363.09 185.81"/>
<path stroke="#2e2c2e" d="&#10;  M 363.09 185.81&#10;  L 366.98 184.09"/>
<path stroke="#1b1b1b" d="&#10;  M 366.98 184.09&#10;  Q 370.63 186.48 370.32 190.55&#10;  Q 370.28 191.06 369.78 191.07&#10;  Q 366.46 191.17 364.10 193.67&#10;  Q 363.95 193.83 364.11 193.99&#10;  L 364.35 194.23&#10;  Q 364.47 194.35 364.60 194.24&#10;  Q 365.74 193.32 366.73 192.58&#10;  Q 367.42 192.06 367.88 192.07&#10;  Q 368.54 192.09 369.19 192.76&#10;  Q 369.57 193.14 370.10 193.14&#10;  L 372.52 193.14&#10;  Q 373.00 193.14 373.40 193.41&#10;  C 375.30 194.74 375.89 195.23 378.09 195.34&#10;  Q 380.00 195.43 381.07 195.93&#10;  C 384.52 197.54 389.40 200.12 394.77 202.16&#10;  Q 396.58 202.85 397.75 204.12&#10;  Q 398.45 204.89 399.15 205.14&#10;  Q 400.34 205.56 400.82 205.70&#10;  Q 401.29 205.84 401.64 206.19&#10;  L 404.06 208.61&#10;  A 0.45 0.45 0.0 0 0 404.83 208.35&#10;  Q 405.30 204.80 402.25 202.54&#10;  Q 397.41 198.94 389.67 194.86&#10;  Q 383.70 191.72 381.92 190.61&#10;  Q 380.27 189.58 379.80 188.36"/>
<path stroke="#1b1b1b" d="&#10;  M 303.20 389.94&#10;  Q 307.07 389.25 308.94 389.46&#10;  Q 319.68 390.68 330.40 391.98&#10;  Q 330.52 391.99 330.56 391.86&#10;  L 330.57 391.85&#10;  Q 330.61 391.72 330.46 391.68&#10;  Q 322.49 389.45 314.33 388.09&#10;  Q 307.66 386.98 305.00 386.43&#10;  Q 300.36 385.47 295.73 384.47&#10;  Q 274.63 379.94 253.81 375.18&#10;  Q 246.75 373.56 210.57 362.52&#10;  Q 206.04 361.14 201.41 359.40&#10;  Q 194.51 356.82 192.30 356.08&#10;  Q 185.96 353.95 178.61 350.93&#10;  Q 167.95 346.56 158.35 343.35&#10;  Q 154.63 342.11 151.21 341.32&#10;  Q 146.40 340.21 143.95 339.86&#10;  Q 129.19 337.70 113.87 334.79&#10;  Q 110.71 334.20 108.56 333.95&#10;  Q 105.40 333.58 103.25 333.26&#10;  Q 100.52 332.87 95.23 332.44&#10;  Q 86.96 331.77 73.81 330.15&#10;  Q 72.41 329.97 55.56 328.59&#10;  Q 54.92 328.54 53.60 328.24&#10;  Q 52.59 328.01 51.56 328.00&#10;  Q 50.47 327.99 48.52 327.45&#10;  Q 45.93 326.74 37.57 324.46&#10;  Q 31.29 322.75 24.29 319.04&#10;  Q 20.54 317.05 16.76 312.60&#10;  Q 10.29 304.97 7.37 295.74&#10;  Q 5.84 290.89 5.81 290.80&#10;  Q 4.95 288.30 4.17 285.77&#10;  Q 3.76 284.46 3.18 285.74&#10;  Q 3.13 285.86 3.19 286.46&#10;  C 4.11 295.64 6.37 305.17 11.84 312.27&#10;  Q 15.06 316.45 18.99 318.74&#10;  Q 25.97 322.81 28.91 325.48"/>
<path stroke="#1b1b1b" d="&#10;  M 1.87 258.26&#10;  L 2.95 262.21&#10;  Q 3.16 262.98 3.42 262.23&#10;  Q 3.73 261.31 3.66 260.28&#10;  Q 3.51 258.08 3.90 256.03&#10;  Q 4.16 254.67 6.99 242.24&#10;  Q 7.70 239.12 13.48 224.45&#10;  Q 13.98 223.19 13.69 221.07&#10;  Q 13.62 220.57 13.81 220.11&#10;  L 15.63 215.86"/>
<path stroke="#2e2c2e" d="&#10;  M 15.63 215.86&#10;  Q 18.07 209.16 16.87 201.62&#10;  Q 16.25 197.78 16.32 195.84&#10;  Q 16.43 192.91 16.82 189.99&#10;  Q 18.49 177.27 21.19 164.73&#10;  Q 23.00 156.30 31.94 124.08&#10;  Q 32.19 123.18 33.68 120.23&#10;  Q 35.21 117.20 33.40 114.50"/>
<path stroke="#474447" d="&#10;  M 15.63 215.86&#10;  Q 14.84 216.21 14.59 216.03"/>
<path stroke="#474447" d="&#10;  M 366.98 184.09&#10;  Q 367.85 176.56 363.38 170.37&#10;  Q 361.00 167.08 357.65 164.59&#10;  Q 347.01 156.68 333.51 157.12"/>
<path stroke="#474447" d="&#10;  M 333.70 155.64&#10;  L 334.81 155.39&#10;  Q 337.26 154.85 334.93 153.93&#10;  Q 332.84 153.10 330.13 153.31"/>
<path stroke="#8d8c8d" stroke-opacity="0.902" d="&#10;  M 286.02 101.18&#10;  Q 287.04 101.75 286.26 99.75&#10;  A 0.67 0.67 0.0 0 0 285.03 99.71&#10;  L 284.87 100.04"/>
<path stroke="#a29fa2" stroke-opacity="0.902" d="&#10;  M 363.09 185.81&#10;  Q 362.20 184.15 362.67 183.94"/>
<path stroke="#2e2c2e" d="&#10;  M 188.5062 11.1790&#10;  A 1.06 0.60 87.5 0 0 189.0594 10.0938&#10;  A 1.06 0.60 87.5 0 0 188.4138 9.0610&#10;  A 1.06 0.60 87.5 0 0 187.8606 10.1462&#10;  A 1.06 0.60 87.5 0 0 188.5062 11.1790"/>
<path stroke="#727172" stroke-opacity="0.902" d="&#10;  M 181.23 87.51&#10;  Q 177.21 89.22 175.25 91.54&#10;  Q 173.80 93.25 175.58 95.29&#10;  Q 175.95 95.71 176.50 95.71&#10;  L 177.76 95.71&#10;  Q 178.45 95.71 178.94 96.20&#10;  L 180.48 97.74&#10;  Q 180.94 98.20 181.46 97.80&#10;  Q 183.24 96.39 184.46 95.52&#10;  Q 188.27 92.80 185.85 96.74&#10;  Q 185.59 97.16 183.71 99.22&#10;  C 172.17 111.93 161.99 120.40 146.14 134.77&#10;  Q 139.07 141.18 131.08 147.92&#10;  Q 128.69 149.93 113.12 163.10&#10;  Q 103.97 170.83 100.56 173.28&#10;  Q 92.53 179.05 82.70 185.95&#10;  C 81.04 187.12 79.61 188.81 77.72 189.91&#10;  Q 75.80 191.04 74.03 192.88&#10;  Q 72.37 194.60 70.77 196.49"/>
<path stroke="#2e2c2e" d="&#10;  M 17.15 298.28&#10;  Q 16.45 302.25 17.87 299.87"/>
<path stroke="#1b1b1b" d="&#10;  M 47.62 254.24&#10;  Q 48.24 256.33 49.67 257.09&#10;  Q 50.13 257.34 50.42 256.90&#10;  Q 56.53 247.63 64.32 238.22&#10;  C 65.37 236.95 65.39 235.42 66.76 234.32&#10;  Q 68.22 233.16 69.18 231.49&#10;  Q 69.72 230.56 71.57 228.70&#10;  Q 73.61 226.64 74.56 224.31"/>
<path stroke="#727172" stroke-opacity="0.902" d="&#10;  M 78.06 221.51&#10;  Q 81.06 219.41 83.62 216.75&#10;  Q 87.12 213.11 88.85 211.70&#10;  Q 103.28 199.97 118.10 188.73&#10;  Q 125.14 183.38 129.79 179.64&#10;  Q 138.12 172.93 141.22 170.22&#10;  Q 156.29 157.04 171.33 143.82&#10;  Q 188.52 128.69 197.14 119.64&#10;  Q 207.28 109.00 209.86 106.71&#10;  C 211.38 105.38 212.49 103.53 213.81 102.31&#10;  Q 231.86 85.67 254.18 76.45"/>
<path stroke="#2e2c2e" d="&#10;  M 254.18 76.45&#10;  Q 261.42 74.56 258.61 67.23&#10;  Q 256.76 62.42 254.38 57.85&#10;  Q 253.53 56.22 252.85 55.90&#10;  Q 250.85 54.93 248.36 53.82"/>
<path stroke="#1b1b1b" d="&#10;  M 248.36 53.82&#10;  L 245.46 52.24&#10;  A 2.62 2.60 -42.1 0 0 243.16 52.13&#10;  Q 230.42 57.70 224.66 60.17&#10;  C 217.43 63.27 208.85 69.52 200.52 74.14&#10;  Q 194.18 77.66 193.01 78.34&#10;  Q 188.51 80.98 184.39 82.75&#10;  Q 180.10 84.60 175.70 87.10&#10;  A 2.91 2.41 77.8 0 0 174.45 89.50&#10;  Q 174.46 89.85 175.03 89.94&#10;  Q 175.52 90.01 175.81 89.61&#10;  Q 178.16 86.34 181.23 87.51"/>
<path stroke="#474447" d="&#10;  M 248.36 53.82&#10;  Q 241.27 53.15 235.72 60.85"/>
<path stroke="#8d8c8d" stroke-opacity="0.902" d="&#10;  M 235.72 60.85&#10;  Q 231.94 62.19 230.30 63.05&#10;  Q 205.93 75.85 181.23 87.51"/>
<path stroke="#a29fa2" stroke-opacity="0.902" d="&#10;  M 254.18 76.45&#10;  Q 253.50 74.63 253.15 72.74&#10;  Q 252.67 70.08 252.22 69.05&#10;  Q 250.40 64.93 246.60 61.93"/>
<path stroke="#2e2c2e" d="&#10;  M 246.60 61.93&#10;  Q 243.99 59.11 239.69 61.01"/>
<path stroke="#a29fa2" stroke-opacity="0.902" d="&#10;  M 239.69 61.01&#10;  L 235.72 60.85"/>
<path stroke="#727172" stroke-opacity="0.902" d="&#10;  M 246.60 61.93&#10;  L 239.69 61.01"/>
<path stroke="#727172" stroke-opacity="0.902" d="&#10;  M 256.65 183.75&#10;  A 0.23 0.23 0.0 0 0 257.02 183.85&#10;  C 260.95 180.39 264.90 176.92 268.81 172.24&#10;  Q 275.44 164.32 278.36 160.87&#10;  Q 280.49 158.35 284.02 155.94&#10;  Q 286.44 154.28 290.96 153.67&#10;  Q 295.73 153.03 304.96 151.14&#10;  Q 313.05 149.49 320.65 149.67&#10;  A 0.78 0.77 76.0 0 0 321.34 148.51&#10;  Q 319.20 144.74 316.81 141.69&#10;  Q 315.13 139.57 311.13 135.75&#10;  Q 303.30 128.28 295.34 119.36&#10;  Q 291.17 114.68 286.90 111.97&#10;  A 1.64 1.63 -44.6 0 0 285.19 111.96&#10;  Q 280.42 114.88 277.65 119.53&#10;  Q 275.38 123.35 275.06 123.75&#10;  Q 273.66 125.52 271.67 127.42&#10;  Q 260.55 138.01 246.05 141.08&#10;  C 242.33 141.87 240.78 142.49 237.60 144.37&#10;  Q 231.49 148.01 228.51 150.94&#10;  Q 222.25 157.10 222.90 165.21&#10;  Q 223.24 169.41 225.43 172.80&#10;  C 228.66 177.81 237.02 180.91 242.75 180.86&#10;  Q 244.76 180.84 252.48 180.33&#10;  Q 254.69 180.18 255.28 180.96&#10;  Q 256.09 182.05 256.65 183.75"/>
<path stroke="#1b1b1b" d="&#10;  M 293.14 156.69&#10;  Q 289.66 157.10 286.70 156.63&#10;  A 1.47 1.46 26.7 0 0 285.42 157.05&#10;  L 284.76 157.71&#10;  Q 284.12 158.35 285.01 158.48&#10;  Q 292.91 159.71 301.04 157.21&#10;  Q 307.55 155.21 315.76 154.49&#10;  Q 318.34 154.27 319.75 154.72&#10;  A 1.83 1.73 78.1 0 1 320.59 155.30&#10;  Q 321.30 156.18 322.12 156.17&#10;  Q 322.66 156.17 322.64 155.64&#10;  C 322.58 152.94 319.17 152.70 316.91 152.86&#10;  Q 311.63 153.26 310.54 153.41&#10;  Q 303.15 154.40 294.52 156.19&#10;  Q 294.04 156.28 294.00 156.30&#10;  Q 293.23 156.68 293.14 156.69"/>
<path stroke="#727172" stroke-opacity="0.902" d="&#10;  M 412.73 230.00&#10;  C 407.77 225.81 404.32 221.16 400.50 214.86&#10;  Q 397.73 210.29 394.64 207.97&#10;  Q 386.67 201.98 376.19 198.88&#10;  Q 373.09 197.97 364.78 198.62&#10;  Q 364.27 198.66 363.88 198.98&#10;  Q 359.16 202.92 356.52 208.35&#10;  Q 354.09 213.35 353.26 214.23&#10;  Q 350.91 216.74 347.14 217.65&#10;  Q 340.55 219.23 333.85 220.20&#10;  Q 326.92 221.20 324.21 221.69&#10;  Q 321.54 222.18 314.63 223.45&#10;  Q 311.28 224.06 307.02 226.01&#10;  Q 302.55 228.04 300.72 231.48&#10;  C 295.94 240.50 304.76 252.16 312.58 255.63&#10;  Q 318.95 258.45 323.93 258.60&#10;  Q 333.24 258.88 333.50 258.90&#10;  C 338.46 259.26 342.26 257.88 346.51 254.35&#10;  C 352.41 249.45 357.07 246.39 365.50 242.26&#10;  Q 373.12 238.52 385.57 234.63&#10;  Q 398.61 230.56 412.37 230.94&#10;  Q 413.91 230.99 412.73 230.00"/>
<path stroke="#1b1b1b" d="&#10;  M 310.34 208.83&#10;  C 309.84 209.09 309.52 209.21 309.17 209.67&#10;  Q 307.47 211.96 305.00 214.55&#10;  A 0.24 0.24 0.0 0 0 305.00 214.89&#10;  L 305.25 215.14&#10;  Q 305.33 215.22 305.41 215.14&#10;  L 312.29 208.26&#10;  Q 312.79 207.75 312.08 207.69&#10;  Q 311.44 207.63 311.06 208.19&#10;  Q 310.77 208.60 310.34 208.83"/>
<path stroke="#727172" stroke-opacity="0.902" d="&#10;  M 11.4137 247.6142&#10;  A 0.28 0.28 0.0 0 0 11.2121 247.2734&#10;  L 11.1540 247.2584&#10;  A 0.28 0.28 0.0 0 0 10.8132 247.4600&#10;  L 6.4263 264.5458&#10;  A 0.28 0.28 0.0 0 0 6.6279 264.8866&#10;  L 6.6860 264.9016&#10;  A 0.28 0.28 0.0 0 0 7.0268 264.7000&#10;  L 11.4137 247.6142"/>
<path stroke="#474447" d="&#10;  M 252.46 59.98&#10;  A 0.33 0.32 20.4 0 0 251.91 60.23&#10;  Q 251.97 61.18 252.83 61.63&#10;  A 0.32 0.31 9.0 0 0 253.29 61.30&#10;  Q 253.18 60.68 252.46 59.98"/>
<path stroke="#8d8c8d" stroke-opacity="0.902" d="&#10;  M 372.5526 189.1942&#10;  A 2.35 1.12 98.5 0 0 374.0077 187.0355&#10;  A 2.35 1.12 98.5 0 0 373.2474 184.5458&#10;  A 2.35 1.12 98.5 0 0 371.7923 186.7045&#10;  A 2.35 1.12 98.5 0 0 372.5526 189.1942"/>
<path stroke="#a29fa2" stroke-opacity="0.902" d="&#10;  M 297.72 134.04&#10;  Q 298.86 134.63 299.32 134.12"/>
</g>
<path fill="#020202" d="&#10;  M 333.18 149.33&#10;  Q 332.71 150.56 330.05 149.87&#10;  Q 329.55 149.74 329.45 149.23&#10;  Q 328.40 144.10 324.90 140.44&#10;  C 322.78 138.22 322.02 135.44 319.75 133.59&#10;  Q 314.52 129.34 309.77 125.36&#10;  Q 307.32 123.31 305.12 120.49&#10;  Q 302.18 116.72 300.70 115.31&#10;  Q 299.44 114.11 298.95 112.42&#10;  Q 298.93 112.34 297.84 109.19&#10;  Q 296.97 106.66 295.62 104.60&#10;  Q 293.43 101.26 289.63 94.85&#10;  Q 286.57 89.67 280.77 86.85&#10;  Q 278.84 85.92 276.80 86.44&#10;  Q 275.53 86.77 272.46 87.13&#10;  Q 272.03 87.18 272.10 87.60&#10;  Q 272.15 87.91 271.75 88.08&#10;  A 0.33 0.33 0.0 0 0 271.71 88.67&#10;  Q 274.58 90.40 277.22 92.23&#10;  Q 281.35 95.09 284.10 98.37&#10;  Q 284.73 99.12 284.87 100.04&#10;  Q 284.92 100.31 284.88 100.49&#10;  Q 284.74 101.03 284.26 100.74&#10;  Q 282.94 99.92 282.29 98.96&#10;  Q 278.30 93.12 272.11 90.65&#10;  Q 269.39 89.56 265.46 88.55&#10;  Q 263.10 87.95 261.12 88.63&#10;  Q 250.02 92.43 239.47 98.71&#10;  Q 237.35 99.97 231.74 103.47&#10;  C 223.87 108.38 217.30 114.52 209.30 120.08&#10;  Q 206.34 122.14 205.11 123.62&#10;  Q 202.87 126.32 199.37 129.44&#10;  A 2.37 2.37 0.0 0 0 198.99 132.55&#10;  Q 200.87 135.31 205.08 140.14&#10;  Q 206.46 141.72 207.81 142.54&#10;  Q 210.27 144.03 211.24 144.08&#10;  Q 216.11 144.33 220.88 144.08&#10;  Q 222.47 143.99 223.20 142.59&#10;  Q 229.13 131.21 238.87 123.12&#10;  Q 249.08 114.62 259.25 109.81&#10;  Q 261.58 108.71 262.36 108.57&#10;  Q 272.45 106.75 272.96 106.65&#10;  Q 279.44 105.37 281.69 103.94&#10;  Q 283.96 102.50 286.02 101.18&#10;  Q 289.94 110.51 296.35 117.33&#10;  Q 298.95 120.10 300.29 121.79&#10;  Q 301.86 123.77 304.69 126.56&#10;  Q 308.99 130.81 310.94 132.40&#10;  Q 314.48 135.29 316.67 138.04&#10;  Q 320.19 142.48 322.16 146.59&#10;  C 323.10 148.55 322.57 150.12 322.72 151.98&#10;  Q 322.76 152.51 323.29 152.48&#10;  Q 326.95 152.25 330.13 153.31&#10;  L 325.11 155.21&#10;  A 0.34 0.34 0.0 0 0 325.15 155.86&#10;  Q 326.20 156.09 327.03 155.58&#10;  Q 327.43 155.33 327.91 155.35&#10;  L 333.70 155.64&#10;  Q 334.23 156.28 333.51 157.12&#10;  Q 327.55 156.89 323.52 157.76&#10;  Q 322.34 158.01 321.51 159.59&#10;  Q 321.23 160.12 321.81 159.99&#10;  Q 328.87 158.41 335.20 158.87&#10;  Q 344.87 159.56 354.08 165.53&#10;  Q 358.63 168.48 360.79 174.55&#10;  Q 362.44 179.20 362.67 183.94&#10;  Q 360.42 175.35 359.15 172.88&#10;  Q 357.18 169.01 353.61 166.68&#10;  Q 340.36 158.02 325.05 160.40&#10;  Q 324.93 160.42 322.23 160.52&#10;  Q 319.73 160.61 318.39 162.90&#10;  Q 315.71 167.47 312.84 170.34&#10;  Q 308.55 174.64 303.35 178.34&#10;  Q 300.99 180.02 296.38 181.55&#10;  Q 289.59 183.80 285.05 184.47&#10;  Q 273.64 186.14 269.07 187.45&#10;  Q 265.47 188.48 264.22 188.96&#10;  C 262.09 189.79 259.99 191.82 259.08 194.36&#10;  Q 256.28 202.19 260.54 208.83&#10;  Q 261.82 210.82 264.92 213.78&#10;  Q 268.38 217.07 270.00 218.07&#10;  Q 274.85 221.09 284.02 221.85&#10;  C 287.07 222.11 289.79 220.60 292.90 220.22&#10;  Q 295.51 219.90 298.14 218.44&#10;  Q 302.22 216.16 302.84 215.33&#10;  Q 306.57 210.33 307.68 209.18&#10;  Q 311.08 205.63 319.53 198.28&#10;  Q 324.51 193.95 333.39 191.37&#10;  Q 336.71 190.40 343.77 190.08&#10;  Q 351.76 189.72 354.22 189.02&#10;  Q 358.80 187.71 360.10 187.63&#10;  Q 361.42 187.56 363.09 185.81&#10;  L 366.98 184.09&#10;  Q 370.63 186.48 370.32 190.55&#10;  Q 370.28 191.06 369.78 191.07&#10;  Q 366.46 191.17 364.10 193.67&#10;  Q 363.95 193.83 364.11 193.99&#10;  L 364.35 194.23&#10;  Q 364.47 194.35 364.60 194.24&#10;  Q 365.74 193.32 366.73 192.58&#10;  Q 367.42 192.06 367.88 192.07&#10;  Q 368.54 192.09 369.19 192.76&#10;  Q 369.57 193.14 370.10 193.14&#10;  L 372.52 193.14&#10;  Q 373.00 193.14 373.40 193.41&#10;  C 375.30 194.74 375.89 195.23 378.09 195.34&#10;  Q 380.00 195.43 381.07 195.93&#10;  C 384.52 197.54 389.40 200.12 394.77 202.16&#10;  Q 396.58 202.85 397.75 204.12&#10;  Q 398.45 204.89 399.15 205.14&#10;  Q 400.34 205.56 400.82 205.70&#10;  Q 401.29 205.84 401.64 206.19&#10;  L 404.06 208.61&#10;  A 0.45 0.45 0.0 0 0 404.83 208.35&#10;  Q 405.30 204.80 402.25 202.54&#10;  Q 397.41 198.94 389.67 194.86&#10;  Q 383.70 191.72 381.92 190.61&#10;  Q 380.27 189.58 379.80 188.36&#10;  Q 392.66 193.93 404.26 201.84&#10;  Q 404.75 202.17 404.95 202.74&#10;  Q 410.65 219.06 423.79 230.30&#10;  C 427.36 233.35 431.51 234.28 435.38 236.77&#10;  C 441.76 240.87 444.97 243.06 450.13 245.79&#10;  Q 464.56 253.40 481.05 262.19&#10;  Q 481.85 262.62 488.15 265.54&#10;  Q 490.90 266.82 494.30 267.18&#10;  Q 502.67 268.08 510.23 270.42&#10;  Q 527.58 275.79 537.95 291.13&#10;  Q 541.42 296.26 542.46 301.41&#10;  Q 543.97 308.91 543.87 313.82&#10;  Q 543.45 333.62 543.61 341.07&#10;  Q 543.71 346.12 541.64 350.32&#10;  Q 540.71 352.22 538.07 353.90&#10;  Q 520.06 365.37 516.96 366.96&#10;  Q 502.42 374.41 492.39 379.11&#10;  Q 483.47 383.29 472.58 386.29&#10;  Q 457.16 390.53 441.93 393.40&#10;  Q 425.28 396.53 408.25 397.13&#10;  Q 384.53 397.98 363.25 396.79&#10;  Q 336.28 395.29 303.20 389.94&#10;  Q 307.07 389.25 308.94 389.46&#10;  Q 319.68 390.68 330.40 391.98&#10;  Q 330.52 391.99 330.56 391.86&#10;  L 330.57 391.85&#10;  Q 330.61 391.72 330.46 391.68&#10;  Q 322.49 389.45 314.33 388.09&#10;  Q 307.66 386.98 305.00 386.43&#10;  Q 300.36 385.47 295.73 384.47&#10;  Q 274.63 379.94 253.81 375.18&#10;  Q 246.75 373.56 210.57 362.52&#10;  Q 206.04 361.14 201.41 359.40&#10;  Q 194.51 356.82 192.30 356.08&#10;  Q 185.96 353.95 178.61 350.93&#10;  Q 167.95 346.56 158.35 343.35&#10;  Q 154.63 342.11 151.21 341.32&#10;  Q 146.40 340.21 143.95 339.86&#10;  Q 129.19 337.70 113.87 334.79&#10;  Q 110.71 334.20 108.56 333.95&#10;  Q 105.40 333.58 103.25 333.26&#10;  Q 100.52 332.87 95.23 332.44&#10;  Q 86.96 331.77 73.81 330.15&#10;  Q 72.41 329.97 55.56 328.59&#10;  Q 54.92 328.54 53.60 328.24&#10;  Q 52.59 328.01 51.56 328.00&#10;  Q 50.47 327.99 48.52 327.45&#10;  Q 45.93 326.74 37.57 324.46&#10;  Q 31.29 322.75 24.29 319.04&#10;  Q 20.54 317.05 16.76 312.60&#10;  Q 10.29 304.97 7.37 295.74&#10;  Q 5.84 290.89 5.81 290.80&#10;  Q 4.95 288.30 4.17 285.77&#10;  Q 3.76 284.46 3.18 285.74&#10;  Q 3.13 285.86 3.19 286.46&#10;  C 4.11 295.64 6.37 305.17 11.84 312.27&#10;  Q 15.06 316.45 18.99 318.74&#10;  Q 25.97 322.81 28.91 325.48&#10;  Q 8.61 318.32 3.57 297.68&#10;  Q 1.74 290.19 1.49 280.76&#10;  Q 1.19 269.56 1.87 258.26&#10;  L 2.95 262.21&#10;  Q 3.16 262.98 3.42 262.23&#10;  Q 3.73 261.31 3.66 260.28&#10;  Q 3.51 258.08 3.90 256.03&#10;  Q 4.16 254.67 6.99 242.24&#10;  Q 7.70 239.12 13.48 224.45&#10;  Q 13.98 223.19 13.69 221.07&#10;  Q 13.62 220.57 13.81 220.11&#10;  L 15.63 215.86&#10;  Q 18.07 209.16 16.87 201.62&#10;  Q 16.25 197.78 16.32 195.84&#10;  Q 16.43 192.91 16.82 189.99&#10;  Q 18.49 177.27 21.19 164.73&#10;  Q 23.00 156.30 31.94 124.08&#10;  Q 32.19 123.18 33.68 120.23&#10;  Q 35.21 117.20 33.40 114.50&#10;  Q 33.51 113.79 33.36 112.86&#10;  Q 33.25 112.18 32.87 111.72&#10;  C 23.13 99.89 15.11 89.34 10.59 76.03&#10;  Q 9.40 72.54 9.53 69.15&#10;  Q 9.67 65.29 11.87 59.19&#10;  Q 15.69 48.61 22.48 43.22&#10;  Q 27.30 39.40 34.08 35.32&#10;  Q 37.74 33.13 42.89 31.87&#10;  C 45.79 31.17 49.81 33.03 51.89 34.47&#10;  Q 58.65 39.14 64.63 42.84&#10;  Q 69.98 46.16 79.14 47.52&#10;  Q 92.90 49.57 97.52 50.57&#10;  Q 101.42 51.42 106.56 51.76&#10;  Q 109.79 51.97 115.67 52.93&#10;  A 1.52 1.52 0.0 0 0 117.42 51.66&#10;  Q 119.81 35.88 128.54 23.42&#10;  C 130.90 20.05 133.29 18.02 137.06 14.32&#10;  Q 142.24 9.22 150.15 5.50&#10;  C 152.83 4.23 156.53 3.51 159.64 2.59&#10;  Q 162.11 1.86 163.49 1.70&#10;  C 170.89 0.86 178.87 1.24 185.90 3.92&#10;  C 189.09 5.13 192.72 5.80 196.19 8.10&#10;  Q 203.56 12.99 207.19 16.78&#10;  Q 215.32 25.25 224.96 39.73&#10;  Q 227.00 42.78 228.50 44.33&#10;  C 234.54 50.55 244.35 48.85 251.79 51.15&#10;  C 257.02 52.77 262.41 61.77 264.69 66.75&#10;  C 266.45 70.59 266.51 73.67 266.19 77.60&#10;  A 1.73 1.73 0.0 0 0 267.40 79.39&#10;  Q 276.80 82.29 285.32 87.77&#10;  Q 287.91 89.44 289.42 91.81&#10;  Q 299.12 107.12 302.14 112.37&#10;  Q 304.67 116.79 307.62 119.81&#10;  Q 313.11 125.41 321.17 132.60&#10;  Q 323.26 134.47 326.98 138.80&#10;  Q 328.31 140.35 330.10 143.72&#10;  Q 331.64 146.60 333.18 149.33&#10;  Z&#10;  M 188.5062 11.1790&#10;  A 1.06 0.60 87.5 0 0 189.0594 10.0938&#10;  A 1.06 0.60 87.5 0 0 188.4138 9.0610&#10;  A 1.06 0.60 87.5 0 0 187.8606 10.1462&#10;  A 1.06 0.60 87.5 0 0 188.5062 11.1790&#10;  Z&#10;  M 181.23 87.51&#10;  Q 177.21 89.22 175.25 91.54&#10;  Q 173.80 93.25 175.58 95.29&#10;  Q 175.95 95.71 176.50 95.71&#10;  L 177.76 95.71&#10;  Q 178.45 95.71 178.94 96.20&#10;  L 180.48 97.74&#10;  Q 180.94 98.20 181.46 97.80&#10;  Q 183.24 96.39 184.46 95.52&#10;  Q 188.27 92.80 185.85 96.74&#10;  Q 185.59 97.16 183.71 99.22&#10;  C 172.17 111.93 161.99 120.40 146.14 134.77&#10;  Q 139.07 141.18 131.08 147.92&#10;  Q 128.69 149.93 113.12 163.10&#10;  Q 103.97 170.83 100.56 173.28&#10;  Q 92.53 179.05 82.70 185.95&#10;  C 81.04 187.12 79.61 188.81 77.72 189.91&#10;  Q 75.80 191.04 74.03 192.88&#10;  Q 72.37 194.60 70.77 196.49&#10;  Q 69.95 197.27 68.83 198.07&#10;  Q 67.64 198.91 66.86 199.64&#10;  Q 53.79 211.84 43.70 223.94&#10;  Q 34.30 235.19 24.98 247.96&#10;  Q 16.50 259.55 11.48 270.16&#10;  C 10.56 272.11 10.37 273.53 10.69 275.57&#10;  Q 12.58 287.79 17.15 298.28&#10;  Q 16.45 302.25 17.87 299.87&#10;  Q 19.54 298.20 19.54 295.66&#10;  Q 19.54 295.14 19.12 294.83&#10;  Q 18.09 294.06 18.01 292.97&#10;  Q 17.96 292.35 18.51 292.65&#10;  Q 21.17 294.12 22.51 292.51&#10;  C 25.41 289.02 28.79 283.86 31.79 278.58&#10;  Q 38.96 265.94 47.62 254.24&#10;  Q 48.24 256.33 49.67 257.09&#10;  Q 50.13 257.34 50.42 256.90&#10;  Q 56.53 247.63 64.32 238.22&#10;  C 65.37 236.95 65.39 235.42 66.76 234.32&#10;  Q 68.22 233.16 69.18 231.49&#10;  Q 69.72 230.56 71.57 228.70&#10;  Q 73.61 226.64 74.56 224.31&#10;  Q 76.25 222.43 78.06 221.51&#10;  Q 81.06 219.41 83.62 216.75&#10;  Q 87.12 213.11 88.85 211.70&#10;  Q 103.28 199.97 118.10 188.73&#10;  Q 125.14 183.38 129.79 179.64&#10;  Q 138.12 172.93 141.22 170.22&#10;  Q 156.29 157.04 171.33 143.82&#10;  Q 188.52 128.69 197.14 119.64&#10;  Q 207.28 109.00 209.86 106.71&#10;  C 211.38 105.38 212.49 103.53 213.81 102.31&#10;  Q 231.86 85.67 254.18 76.45&#10;  Q 261.42 74.56 258.61 67.23&#10;  Q 256.76 62.42 254.38 57.85&#10;  Q 253.53 56.22 252.85 55.90&#10;  Q 250.85 54.93 248.36 53.82&#10;  L 245.46 52.24&#10;  A 2.62 2.60 -42.1 0 0 243.16 52.13&#10;  Q 230.42 57.70 224.66 60.17&#10;  C 217.43 63.27 208.85 69.52 200.52 74.14&#10;  Q 194.18 77.66 193.01 78.34&#10;  Q 188.51 80.98 184.39 82.75&#10;  Q 180.10 84.60 175.70 87.10&#10;  A 2.91 2.41 77.8 0 0 174.45 89.50&#10;  Q 174.46 89.85 175.03 89.94&#10;  Q 175.52 90.01 175.81 89.61&#10;  Q 178.16 86.34 181.23 87.51&#10;  Z&#10;  M 256.65 183.75&#10;  A 0.23 0.23 0.0 0 0 257.02 183.85&#10;  C 260.95 180.39 264.90 176.92 268.81 172.24&#10;  Q 275.44 164.32 278.36 160.87&#10;  Q 280.49 158.35 284.02 155.94&#10;  Q 286.44 154.28 290.96 153.67&#10;  Q 295.73 153.03 304.96 151.14&#10;  Q 313.05 149.49 320.65 149.67&#10;  A 0.78 0.77 76.0 0 0 321.34 148.51&#10;  Q 319.20 144.74 316.81 141.69&#10;  Q 315.13 139.57 311.13 135.75&#10;  Q 303.30 128.28 295.34 119.36&#10;  Q 291.17 114.68 286.90 111.97&#10;  A 1.64 1.63 -44.6 0 0 285.19 111.96&#10;  Q 280.42 114.88 277.65 119.53&#10;  Q 275.38 123.35 275.06 123.75&#10;  Q 273.66 125.52 271.67 127.42&#10;  Q 260.55 138.01 246.05 141.08&#10;  C 242.33 141.87 240.78 142.49 237.60 144.37&#10;  Q 231.49 148.01 228.51 150.94&#10;  Q 222.25 157.10 222.90 165.21&#10;  Q 223.24 169.41 225.43 172.80&#10;  C 228.66 177.81 237.02 180.91 242.75 180.86&#10;  Q 244.76 180.84 252.48 180.33&#10;  Q 254.69 180.18 255.28 180.96&#10;  Q 256.09 182.05 256.65 183.75&#10;  Z&#10;  M 293.14 156.69&#10;  Q 289.66 157.10 286.70 156.63&#10;  A 1.47 1.46 26.7 0 0 285.42 157.05&#10;  L 284.76 157.71&#10;  Q 284.12 158.35 285.01 158.48&#10;  Q 292.91 159.71 301.04 157.21&#10;  Q 307.55 155.21 315.76 154.49&#10;  Q 318.34 154.27 319.75 154.72&#10;  A 1.83 1.73 78.1 0 1 320.59 155.30&#10;  Q 321.30 156.18 322.12 156.17&#10;  Q 322.66 156.17 322.64 155.64&#10;  C 322.58 152.94 319.17 152.70 316.91 152.86&#10;  Q 311.63 153.26 310.54 153.41&#10;  Q 303.15 154.40 294.52 156.19&#10;  Q 294.04 156.28 294.00 156.30&#10;  Q 293.23 156.68 293.14 156.69&#10;  Z&#10;  M 412.73 230.00&#10;  C 407.77 225.81 404.32 221.16 400.50 214.86&#10;  Q 397.73 210.29 394.64 207.97&#10;  Q 386.67 201.98 376.19 198.88&#10;  Q 373.09 197.97 364.78 198.62&#10;  Q 364.27 198.66 363.88 198.98&#10;  Q 359.16 202.92 356.52 208.35&#10;  Q 354.09 213.35 353.26 214.23&#10;  Q 350.91 216.74 347.14 217.65&#10;  Q 340.55 219.23 333.85 220.20&#10;  Q 326.92 221.20 324.21 221.69&#10;  Q 321.54 222.18 314.63 223.45&#10;  Q 311.28 224.06 307.02 226.01&#10;  Q 302.55 228.04 300.72 231.48&#10;  C 295.94 240.50 304.76 252.16 312.58 255.63&#10;  Q 318.95 258.45 323.93 258.60&#10;  Q 333.24 258.88 333.50 258.90&#10;  C 338.46 259.26 342.26 257.88 346.51 254.35&#10;  C 352.41 249.45 357.07 246.39 365.50 242.26&#10;  Q 373.12 238.52 385.57 234.63&#10;  Q 398.61 230.56 412.37 230.94&#10;  Q 413.91 230.99 412.73 230.00&#10;  Z&#10;  M 310.34 208.83&#10;  C 309.84 209.09 309.52 209.21 309.17 209.67&#10;  Q 307.47 211.96 305.00 214.55&#10;  A 0.24 0.24 0.0 0 0 305.00 214.89&#10;  L 305.25 215.14&#10;  Q 305.33 215.22 305.41 215.14&#10;  L 312.29 208.26&#10;  Q 312.79 207.75 312.08 207.69&#10;  Q 311.44 207.63 311.06 208.19&#10;  Q 310.77 208.60 310.34 208.83&#10;  Z&#10;  M 11.4137 247.6142&#10;  A 0.28 0.28 0.0 0 0 11.2121 247.2734&#10;  L 11.1540 247.2584&#10;  A 0.28 0.28 0.0 0 0 10.8132 247.4600&#10;  L 6.4263 264.5458&#10;  A 0.28 0.28 0.0 0 0 6.6279 264.8866&#10;  L 6.6860 264.9016&#10;  A 0.28 0.28 0.0 0 0 7.0268 264.7000&#10;  L 11.4137 247.6142&#10;  Z"/>
<ellipse fill="#5a5559" cx="0.00" cy="0.00" transform="translate(188.46,10.12) rotate(87.5)" rx="1.06" ry="0.60"/>
<path fill="#343334" d="&#10;  M 248.36 53.82&#10;  Q 241.27 53.15 235.72 60.85&#10;  Q 231.94 62.19 230.30 63.05&#10;  Q 205.93 75.85 181.23 87.51&#10;  Q 178.16 86.34 175.81 89.61&#10;  Q 175.52 90.01 175.03 89.94&#10;  Q 174.46 89.85 174.45 89.50&#10;  A 2.91 2.41 77.8 0 1 175.70 87.10&#10;  Q 180.10 84.60 184.39 82.75&#10;  Q 188.51 80.98 193.01 78.34&#10;  Q 194.18 77.66 200.52 74.14&#10;  C 208.85 69.52 217.43 63.27 224.66 60.17&#10;  Q 230.42 57.70 243.16 52.13&#10;  A 2.62 2.60 -42.1 0 1 245.46 52.24&#10;  L 248.36 53.82&#10;  Z"/>
<path fill="#5a5559" d="&#10;  M 248.36 53.82&#10;  Q 250.85 54.93 252.85 55.90&#10;  Q 253.53 56.22 254.38 57.85&#10;  Q 256.76 62.42 258.61 67.23&#10;  Q 261.42 74.56 254.18 76.45&#10;  Q 253.50 74.63 253.15 72.74&#10;  Q 252.67 70.08 252.22 69.05&#10;  Q 250.40 64.93 246.60 61.93&#10;  Q 243.99 59.11 239.69 61.01&#10;  L 235.72 60.85&#10;  Q 241.27 53.15 248.36 53.82&#10;  Z&#10;  M 252.46 59.98&#10;  A 0.33 0.32 20.4 0 0 251.91 60.23&#10;  Q 251.97 61.18 252.83 61.63&#10;  A 0.32 0.31 9.0 0 0 253.29 61.30&#10;  Q 253.18 60.68 252.46 59.98&#10;  Z"/>
<path fill="#343334" d="&#10;  M 252.46 59.98&#10;  Q 253.18 60.68 253.29 61.30&#10;  A 0.32 0.31 9.0 0 1 252.83 61.63&#10;  Q 251.97 61.18 251.91 60.23&#10;  A 0.33 0.32 20.4 0 1 252.46 59.98&#10;  Z"/>
<path fill="#020202" d="&#10;  M 246.60 61.93&#10;  L 239.69 61.01&#10;  Q 243.99 59.11 246.60 61.93&#10;  Z"/>
<path fill="#fdfcfd" fill-opacity="0.800" d="&#10;  M 239.69 61.01&#10;  L 246.60 61.93&#10;  Q 250.40 64.93 252.22 69.05&#10;  Q 252.67 70.08 253.15 72.74&#10;  Q 253.50 74.63 254.18 76.45&#10;  Q 231.86 85.67 213.81 102.31&#10;  C 212.49 103.53 211.38 105.38 209.86 106.71&#10;  Q 207.28 109.00 197.14 119.64&#10;  Q 188.52 128.69 171.33 143.82&#10;  Q 156.29 157.04 141.22 170.22&#10;  Q 138.12 172.93 129.79 179.64&#10;  Q 125.14 183.38 118.10 188.73&#10;  Q 103.28 199.97 88.85 211.70&#10;  Q 87.12 213.11 83.62 216.75&#10;  Q 81.06 219.41 78.06 221.51&#10;  Q 83.08 216.37 85.72 212.97&#10;  Q 86.28 212.24 86.83 210.60&#10;  Q 86.99 210.12 86.48 210.12&#10;  L 85.06 210.12&#10;  A 1.36 1.30 57.6 0 1 84.45 209.97&#10;  L 79.68 207.59&#10;  A 5.10 4.16 3.1 0 1 77.67 205.76&#10;  L 73.22 198.04&#10;  Q 73.04 197.73 73.22 197.42&#10;  L 73.35 197.20&#10;  Q 73.53 196.88 73.25 196.64&#10;  Q 72.36 195.86 70.77 196.49&#10;  Q 72.37 194.60 74.03 192.88&#10;  Q 75.80 191.04 77.72 189.91&#10;  C 79.61 188.81 81.04 187.12 82.70 185.95&#10;  Q 92.53 179.05 100.56 173.28&#10;  Q 103.97 170.83 113.12 163.10&#10;  Q 128.69 149.93 131.08 147.92&#10;  Q 139.07 141.18 146.14 134.77&#10;  C 161.99 120.40 172.17 111.93 183.71 99.22&#10;  Q 185.59 97.16 185.85 96.74&#10;  Q 188.27 92.80 184.46 95.52&#10;  Q 183.24 96.39 181.46 97.80&#10;  Q 180.94 98.20 180.48 97.74&#10;  L 178.94 96.20&#10;  Q 178.45 95.71 177.76 95.71&#10;  L 176.50 95.71&#10;  Q 175.95 95.71 175.58 95.29&#10;  Q 173.80 93.25 175.25 91.54&#10;  Q 177.21 89.22 181.23 87.51&#10;  Q 205.93 75.85 230.30 63.05&#10;  Q 231.94 62.19 235.72 60.85&#10;  L 239.69 61.01&#10;  Z"/>
<path fill="#343334" d="&#10;  M 333.18 149.33&#10;  Q 345.15 149.91 351.63 153.09&#10;  Q 365.93 160.12 372.58 174.11&#10;  Q 374.95 179.09 374.50 184.15&#10;  A 2.22 2.20 -74.3 0 0 375.71 186.32&#10;  L 379.80 188.36&#10;  Q 380.27 189.58 381.92 190.61&#10;  Q 383.70 191.72 389.67 194.86&#10;  Q 397.41 198.94 402.25 202.54&#10;  Q 405.30 204.80 404.83 208.35&#10;  A 0.45 0.45 0.0 0 1 404.06 208.61&#10;  L 401.64 206.19&#10;  Q 401.29 205.84 400.82 205.70&#10;  Q 400.34 205.56 399.15 205.14&#10;  Q 398.45 204.89 397.75 204.12&#10;  Q 396.58 202.85 394.77 202.16&#10;  C 389.40 200.12 384.52 197.54 381.07 195.93&#10;  Q 380.00 195.43 378.09 195.34&#10;  C 375.89 195.23 375.30 194.74 373.40 193.41&#10;  Q 373.00 193.14 372.52 193.14&#10;  L 370.10 193.14&#10;  Q 369.57 193.14 369.19 192.76&#10;  Q 368.54 192.09 367.88 192.07&#10;  Q 367.42 192.06 366.73 192.58&#10;  Q 365.74 193.32 364.60 194.24&#10;  Q 364.47 194.35 364.35 194.23&#10;  L 364.11 193.99&#10;  Q 363.95 193.83 364.10 193.67&#10;  Q 366.46 191.17 369.78 191.07&#10;  Q 370.28 191.06 370.32 190.55&#10;  Q 370.63 186.48 366.98 184.09&#10;  Q 367.85 176.56 363.38 170.37&#10;  Q 361.00 167.08 357.65 164.59&#10;  Q 347.01 156.68 333.51 157.12&#10;  Q 334.23 156.28 333.70 155.64&#10;  L 334.81 155.39&#10;  Q 337.26 154.85 334.93 153.93&#10;  Q 332.84 153.10 330.13 153.31&#10;  Q 326.95 152.25 323.29 152.48&#10;  Q 322.76 152.51 322.72 151.98&#10;  C 322.57 150.12 323.10 148.55 322.16 146.59&#10;  Q 320.19 142.48 316.67 138.04&#10;  Q 314.48 135.29 310.94 132.40&#10;  Q 308.99 130.81 304.69 126.56&#10;  Q 301.86 123.77 300.29 121.79&#10;  Q 298.95 120.10 296.35 117.33&#10;  Q 289.94 110.51 286.02 101.18&#10;  Q 287.04 101.75 286.26 99.75&#10;  A 0.67 0.67 0.0 0 0 285.03 99.71&#10;  L 284.87 100.04&#10;  Q 284.73 99.12 284.10 98.37&#10;  Q 281.35 95.09 277.22 92.23&#10;  Q 274.58 90.40 271.71 88.67&#10;  A 0.33 0.33 0.0 0 1 271.75 88.08&#10;  Q 272.15 87.91 272.10 87.60&#10;  Q 272.03 87.18 272.46 87.13&#10;  Q 275.53 86.77 276.80 86.44&#10;  Q 278.84 85.92 280.77 86.85&#10;  Q 286.57 89.67 289.63 94.85&#10;  Q 293.43 101.26 295.62 104.60&#10;  Q 296.97 106.66 297.84 109.19&#10;  Q 298.93 112.34 298.95 112.42&#10;  Q 299.44 114.11 300.70 115.31&#10;  Q 302.18 116.72 305.12 120.49&#10;  Q 307.32 123.31 309.77 125.36&#10;  Q 314.52 129.34 319.75 133.59&#10;  C 322.02 135.44 322.78 138.22 324.90 140.44&#10;  Q 328.40 144.10 329.45 149.23&#10;  Q 329.55 149.74 330.05 149.87&#10;  Q 332.71 150.56 333.18 149.33&#10;  Z&#10;  M 372.5526 189.1942&#10;  A 2.35 1.12 98.5 0 0 374.0077 187.0355&#10;  A 2.35 1.12 98.5 0 0 373.2474 184.5458&#10;  A 2.35 1.12 98.5 0 0 371.7923 186.7045&#10;  A 2.35 1.12 98.5 0 0 372.5526 189.1942&#10;  Z"/>
<path fill="#fdfcfd" fill-opacity="0.800" d="&#10;  M 284.87 100.04&#10;  L 285.03 99.71&#10;  A 0.67 0.67 0.0 0 1 286.26 99.75&#10;  Q 287.04 101.75 286.02 101.18&#10;  Q 283.96 102.50 281.69 103.94&#10;  Q 279.44 105.37 272.96 106.65&#10;  Q 272.45 106.75 262.36 108.57&#10;  Q 261.58 108.71 259.25 109.81&#10;  Q 249.08 114.62 238.87 123.12&#10;  Q 229.13 131.21 223.20 142.59&#10;  Q 222.47 143.99 220.88 144.08&#10;  Q 216.11 144.33 211.24 144.08&#10;  Q 210.27 144.03 207.81 142.54&#10;  Q 206.46 141.72 205.08 140.14&#10;  Q 200.87 135.31 198.99 132.55&#10;  A 2.37 2.37 0.0 0 1 199.37 129.44&#10;  Q 202.87 126.32 205.11 123.62&#10;  Q 206.34 122.14 209.30 120.08&#10;  C 217.30 114.52 223.87 108.38 231.74 103.47&#10;  Q 237.35 99.97 239.47 98.71&#10;  Q 250.02 92.43 261.12 88.63&#10;  Q 263.10 87.95 265.46 88.55&#10;  Q 269.39 89.56 272.11 90.65&#10;  Q 278.30 93.12 282.29 98.96&#10;  Q 282.94 99.92 284.26 100.74&#10;  Q 284.74 101.03 284.88 100.49&#10;  Q 284.92 100.31 284.87 100.04&#10;  Z"/>
<path fill="#fdfcfd" fill-opacity="0.800" d="&#10;  M 256.65 183.75&#10;  Q 256.09 182.05 255.28 180.96&#10;  Q 254.69 180.18 252.48 180.33&#10;  Q 244.76 180.84 242.75 180.86&#10;  C 237.02 180.91 228.66 177.81 225.43 172.80&#10;  Q 223.24 169.41 222.90 165.21&#10;  Q 222.25 157.10 228.51 150.94&#10;  Q 231.49 148.01 237.60 144.37&#10;  C 240.78 142.49 242.33 141.87 246.05 141.08&#10;  Q 260.55 138.01 271.67 127.42&#10;  Q 273.66 125.52 275.06 123.75&#10;  Q 275.38 123.35 277.65 119.53&#10;  Q 280.42 114.88 285.19 111.96&#10;  A 1.64 1.63 -44.6 0 1 286.90 111.97&#10;  Q 291.17 114.68 295.34 119.36&#10;  Q 303.30 128.28 311.13 135.75&#10;  Q 315.13 139.57 316.81 141.69&#10;  Q 319.20 144.74 321.34 148.51&#10;  A 0.78 0.77 76.0 0 1 320.65 149.67&#10;  Q 313.05 149.49 304.96 151.14&#10;  Q 295.73 153.03 290.96 153.67&#10;  Q 286.44 154.28 284.02 155.94&#10;  Q 280.49 158.35 278.36 160.87&#10;  Q 275.44 164.32 268.81 172.24&#10;  C 264.90 176.92 260.95 180.39 257.02 183.85&#10;  A 0.23 0.23 0.0 0 1 256.65 183.75&#10;  Z&#10;  M 297.72 134.04&#10;  Q 298.86 134.63 299.32 134.12&#10;  Q 301.51 133.42 302.37 131.15&#10;  A 0.17 0.17 0.0 0 1 302.70 131.21&#10;  Q 302.70 131.74 303.30 131.08&#10;  A 0.93 0.92 46.5 0 0 303.33 129.87&#10;  Q 301.51 127.66 299.55 125.91&#10;  Q 299.26 125.64 297.38 125.32&#10;  Q 296.88 125.23 296.73 125.71&#10;  Q 296.43 126.65 295.70 127.30&#10;  Q 294.82 128.09 295.53 127.17&#10;  Q 295.69 126.96 295.97 126.75&#10;  Q 296.49 126.37 296.54 125.74&#10;  A 0.21 0.21 0.0 0 0 296.18 125.56&#10;  C 294.89 126.78 295.09 128.16 294.66 129.93&#10;  Q 294.55 130.37 294.65 130.85&#10;  Q 294.67 130.94 294.71 130.86&#10;  Q 294.75 130.79 294.76 130.77&#10;  Q 294.88 130.60 295.04 130.75&#10;  Q 295.37 131.04 295.09 131.49&#10;  Q 294.84 131.89 295.10 132.27&#10;  Q 296.00 133.56 297.72 134.04&#10;  Z"/>
<path fill="#5a5559" d="&#10;  M 15.63 215.86&#10;  Q 14.84 216.21 14.59 216.03&#10;  Q 13.76 212.00 13.70 209.25&#10;  Q 13.56 202.91 14.04 192.55&#10;  Q 14.41 184.46 16.10 176.02&#10;  Q 19.75 157.79 24.72 141.20&#10;  Q 26.77 134.38 33.40 114.50&#10;  Q 35.21 117.20 33.68 120.23&#10;  Q 32.19 123.18 31.94 124.08&#10;  Q 23.00 156.30 21.19 164.73&#10;  Q 18.49 177.27 16.82 189.99&#10;  Q 16.43 192.91 16.32 195.84&#10;  Q 16.25 197.78 16.87 201.62&#10;  Q 18.07 209.16 15.63 215.86&#10;  Z"/>
<path fill="#5a5559" d="&#10;  M 299.32 134.12&#10;  Q 298.86 134.63 297.72 134.04&#10;  L 299.32 134.12&#10;  Z"/>
<path fill="#343334" d="&#10;  M 294.00 156.30&#10;  Q 294.04 156.28 294.52 156.19&#10;  Q 303.15 154.40 310.54 153.41&#10;  Q 311.63 153.26 316.91 152.86&#10;  C 319.17 152.70 322.58 152.94 322.64 155.64&#10;  Q 322.66 156.17 322.12 156.17&#10;  Q 321.30 156.18 320.59 155.30&#10;  A 1.83 1.73 78.1 0 0 319.75 154.72&#10;  Q 318.34 154.27 315.76 154.49&#10;  Q 307.55 155.21 301.04 157.21&#10;  Q 292.91 159.71 285.01 158.48&#10;  Q 284.12 158.35 284.76 157.71&#10;  L 285.42 157.05&#10;  A 1.47 1.46 26.7 0 1 286.70 156.63&#10;  Q 289.66 157.10 293.14 156.69&#10;  Q 293.23 156.68 294.00 156.30&#10;  Z"/>
<path fill="#5a5559" d="&#10;  M 333.70 155.64&#10;  L 327.91 155.35&#10;  Q 327.43 155.33 327.03 155.58&#10;  Q 326.20 156.09 325.15 155.86&#10;  A 0.34 0.34 0.0 0 1 325.11 155.21&#10;  L 330.13 153.31&#10;  Q 332.84 153.10 334.93 153.93&#10;  Q 337.26 154.85 334.81 155.39&#10;  L 333.70 155.64&#10;  Z"/>
<path fill="#5a5559" d="&#10;  M 333.51 157.12&#10;  Q 347.01 156.68 357.65 164.59&#10;  Q 361.00 167.08 363.38 170.37&#10;  Q 367.85 176.56 366.98 184.09&#10;  L 363.09 185.81&#10;  Q 362.20 184.15 362.67 183.94&#10;  Q 362.44 179.20 360.79 174.55&#10;  Q 358.63 168.48 354.08 165.53&#10;  Q 344.87 159.56 335.20 158.87&#10;  Q 328.87 158.41 321.81 159.99&#10;  Q 321.23 160.12 321.51 159.59&#10;  Q 322.34 158.01 323.52 157.76&#10;  Q 327.55 156.89 333.51 157.12&#10;  Z"/>
<path fill="#fdfcfd" fill-opacity="0.800" d="&#10;  M 362.67 183.94&#10;  Q 362.20 184.15 363.09 185.81&#10;  Q 361.42 187.56 360.10 187.63&#10;  Q 358.80 187.71 354.22 189.02&#10;  Q 351.76 189.72 343.77 190.08&#10;  Q 336.71 190.40 333.39 191.37&#10;  Q 324.51 193.95 319.53 198.28&#10;  Q 311.08 205.63 307.68 209.18&#10;  Q 306.57 210.33 302.84 215.33&#10;  Q 302.22 216.16 298.14 218.44&#10;  Q 295.51 219.90 292.90 220.22&#10;  C 289.79 220.60 287.07 222.11 284.02 221.85&#10;  Q 274.85 221.09 270.00 218.07&#10;  Q 268.38 217.07 264.92 213.78&#10;  Q 261.82 210.82 260.54 208.83&#10;  Q 256.28 202.19 259.08 194.36&#10;  C 259.99 191.82 262.09 189.79 264.22 188.96&#10;  Q 265.47 188.48 269.07 187.45&#10;  Q 273.64 186.14 285.05 184.47&#10;  Q 289.59 183.80 296.38 181.55&#10;  Q 300.99 180.02 303.35 178.34&#10;  Q 308.55 174.64 312.84 170.34&#10;  Q 315.71 167.47 318.39 162.90&#10;  Q 319.73 160.61 322.23 160.52&#10;  Q 324.93 160.42 325.05 160.40&#10;  Q 340.36 158.02 353.61 166.68&#10;  Q 357.18 169.01 359.15 172.88&#10;  Q 360.42 175.35 362.67 183.94&#10;  Z"/>
<ellipse fill="#fdfcfd" fill-opacity="0.800" cx="0.00" cy="0.00" transform="translate(372.90,186.87) rotate(98.5)" rx="2.35" ry="1.12"/>
<path fill="#fdfcfd" fill-opacity="0.800" d="&#10;  M 400.50 214.86&#10;  C 404.32 221.16 407.77 225.81 412.73 230.00&#10;  Q 413.91 230.99 412.37 230.94&#10;  Q 398.61 230.56 385.57 234.63&#10;  Q 373.12 238.52 365.50 242.26&#10;  C 357.07 246.39 352.41 249.45 346.51 254.35&#10;  C 342.26 257.88 338.46 259.26 333.50 258.90&#10;  Q 333.24 258.88 323.93 258.60&#10;  Q 318.95 258.45 312.58 255.63&#10;  C 304.76 252.16 295.94 240.50 300.72 231.48&#10;  Q 302.55 228.04 307.02 226.01&#10;  Q 311.28 224.06 314.63 223.45&#10;  Q 321.54 222.18 324.21 221.69&#10;  Q 326.92 221.20 333.85 220.20&#10;  Q 340.55 219.23 347.14 217.65&#10;  Q 350.91 216.74 353.26 214.23&#10;  Q 354.09 213.35 356.52 208.35&#10;  Q 359.16 202.92 363.88 198.98&#10;  Q 364.27 198.66 364.78 198.62&#10;  Q 373.09 197.97 376.19 198.88&#10;  Q 386.67 201.98 394.64 207.97&#10;  Q 397.73 210.29 400.50 214.86&#10;  Z"/>
<path fill="#343334" d="&#10;  M 311.06 208.19&#10;  Q 311.44 207.63 312.08 207.69&#10;  Q 312.79 207.75 312.29 208.26&#10;  L 305.41 215.14&#10;  Q 305.33 215.22 305.25 215.14&#10;  L 305.00 214.89&#10;  A 0.24 0.24 0.0 0 1 305.00 214.55&#10;  Q 307.47 211.96 309.17 209.67&#10;  C 309.52 209.21 309.84 209.09 310.34 208.83&#10;  Q 310.77 208.60 311.06 208.19&#10;  Z"/>
<path fill="#343334" d="&#10;  M 15.63 215.86&#10;  L 13.81 220.11&#10;  Q 13.62 220.57 13.69 221.07&#10;  Q 13.98 223.19 13.48 224.45&#10;  Q 7.70 239.12 6.99 242.24&#10;  Q 4.16 254.67 3.90 256.03&#10;  Q 3.51 258.08 3.66 260.28&#10;  Q 3.73 261.31 3.42 262.23&#10;  Q 3.16 262.98 2.95 262.21&#10;  L 1.87 258.26&#10;  Q 2.51 245.63 7.29 233.76&#10;  Q 10.27 226.37 13.53 219.08&#10;  Q 14.18 217.61 14.59 216.03&#10;  Q 14.84 216.21 15.63 215.86&#10;  Z"/>
<path fill="#343334" d="&#10;  M 74.56 224.31&#10;  Q 73.61 226.64 71.57 228.70&#10;  Q 69.72 230.56 69.18 231.49&#10;  Q 68.22 233.16 66.76 234.32&#10;  C 65.39 235.42 65.37 236.95 64.32 238.22&#10;  Q 56.53 247.63 50.42 256.90&#10;  Q 50.13 257.34 49.67 257.09&#10;  Q 48.24 256.33 47.62 254.24&#10;  Q 59.67 238.22 74.56 224.31&#10;  Z"/>
<rect fill="#fdfcfd" fill-opacity="0.800" x="-0.31" y="-9.10" transform="translate(8.92,256.08) rotate(14.4)" width="0.62" height="18.20" rx="0.28"/>
<path fill="#343334" d="&#10;  M 303.20 389.94&#10;  Q 272.54 384.39 254.04 379.40&#10;  Q 240.95 375.86 227.84 372.40&#10;  Q 218.92 370.05 201.35 363.51&#10;  Q 190.15 359.34 182.49 356.87&#10;  Q 176.45 354.92 152.86 347.03&#10;  Q 149.56 345.92 146.94 345.30&#10;  Q 143.97 344.60 140.89 344.01&#10;  Q 125.07 341.02 109.75 337.97&#10;  Q 107.15 337.45 89.02 336.45&#10;  C 78.55 335.88 70.43 335.14 60.99 334.03&#10;  C 54.29 333.25 48.01 330.60 41.26 329.08&#10;  Q 35.41 327.76 32.94 327.08&#10;  Q 31.23 326.61 28.91 325.48&#10;  Q 25.97 322.81 18.99 318.74&#10;  Q 15.06 316.45 11.84 312.27&#10;  C 6.37 305.17 4.11 295.64 3.19 286.46&#10;  Q 3.13 285.86 3.18 285.74&#10;  Q 3.76 284.46 4.17 285.77&#10;  Q 4.95 288.30 5.81 290.80&#10;  Q 5.84 290.89 7.37 295.74&#10;  Q 10.29 304.97 16.76 312.60&#10;  Q 20.54 317.05 24.29 319.04&#10;  Q 31.29 322.75 37.57 324.46&#10;  Q 45.93 326.74 48.52 327.45&#10;  Q 50.47 327.99 51.56 328.00&#10;  Q 52.59 328.01 53.60 328.24&#10;  Q 54.92 328.54 55.56 328.59&#10;  Q 72.41 329.97 73.81 330.15&#10;  Q 86.96 331.77 95.23 332.44&#10;  Q 100.52 332.87 103.25 333.26&#10;  Q 105.40 333.58 108.56 333.95&#10;  Q 110.71 334.20 113.87 334.79&#10;  Q 129.19 337.70 143.95 339.86&#10;  Q 146.40 340.21 151.21 341.32&#10;  Q 154.63 342.11 158.35 343.35&#10;  Q 167.95 346.56 178.61 350.93&#10;  Q 185.96 353.95 192.30 356.08&#10;  Q 194.51 356.82 201.41 359.40&#10;  Q 206.04 361.14 210.57 362.52&#10;  Q 246.75 373.56 253.81 375.18&#10;  Q 274.63 379.94 295.73 384.47&#10;  Q 300.36 385.47 305.00 386.43&#10;  Q 307.66 386.98 314.33 388.09&#10;  Q 322.49 389.45 330.46 391.68&#10;  Q 330.61 391.72 330.57 391.85&#10;  L 330.56 391.86&#10;  Q 330.52 391.99 330.40 391.98&#10;  Q 319.68 390.68 308.94 389.46&#10;  Q 307.07 389.25 303.20 389.94&#10;  Z"/>
<path fill="#5a5559" d="&#10;  M 17.15 298.28&#10;  L 17.87 299.87&#10;  Q 16.45 302.25 17.15 298.28&#10;  Z"/>
</svg>