<?xml version="1.0" standalone="no"?>
<!DOCTYPE svg PUBLIC "-//W3C//DTD SVG 20010904//EN"
 "http://www.w3.org/TR/2001/REC-SVG-20010904/DTD/svg10.dtd">
<svg version="1.0" xmlns="http://www.w3.org/2000/svg"
 width="439.000000pt" height="439.000000pt" viewBox="0 0 439.000000 439.000000"
 preserveAspectRatio="xMidYMid meet">

<g transform="translate(0.000000,439.000000) scale(0.100000,-0.100000)"
fill="#000000" stroke="none">
<path d="M0 2195 l0 -2195 2195 0 2195 0 0 2195 0 2195 -2195 0 -2195 0 0
-2195z m3567 1808 c79 -20 168 -77 227 -147 l41 -48 -1 -87 c0 -74 -5 -97 -33
-163 -30 -72 -70 -133 -131 -201 -27 -32 -145 -117 -160 -117 -6 0 -10 -3 -10
-7 0 -5 -68 -42 -151 -83 -120 -60 -156 -82 -175 -110 -27 -40 -61 -178 -99
-400 -119 -701 -220 -1049 -388 -1340 -156 -270 -339 -425 -570 -480 -119 -29
-179 -26 -255 10 -145 68 -259 183 -330 331 -106 219 -138 338 -152 554 -13
206 -38 502 -50 585 -19 137 -186 804 -212 847 -10 18 -87 89 -169 159 -83 70
-164 145 -181 168 -76 102 -95 207 -60 323 27 89 57 132 112 163 85 47 289 27
425 -42 61 -32 202 -141 311 -243 88 -82 80 -78 158 -70 39 3 125 18 191 32
147 30 330 35 410 9 125 -40 188 -19 595 196 143 76 307 143 394 163 85 18
186 18 263 -2z m-2177 -3528 c0 -33 1 -34 30 -29 46 10 60 -9 60 -77 0 -76
-18 -77 -22 -2 -2 48 -6 58 -22 61 -28 6 -46 -25 -46 -75 0 -24 -4 -43 -10
-43 -6 0 -10 40 -10 100 0 60 4 100 10 100 6 0 10 -16 10 -35z m1390 -64 l0
-98 -45 -1 c-55 -1 -75 17 -75 68 0 46 21 70 61 70 26 0 29 3 29 30 0 20 5 30
15 30 12 0 15 -18 15 -99z m-1440 72 c-1 -10 -9 -52 -19 -93 -22 -94 -42 -102
-60 -28 -21 82 -28 88 -40 38 -17 -67 -30 -92 -44 -87 -11 3 -44 118 -46 160
-1 27 18 20 25 -10 3 -16 11 -46 17 -68 l10 -40 20 68 c11 37 25 67 32 67 6 0
19 -27 29 -60 9 -34 20 -59 25 -56 5 3 12 27 16 52 3 26 9 53 12 60 7 20 23
17 23 -3z m2058 -28 c2 -20 -4 -39 -18 -54 -11 -13 -20 -28 -20 -33 0 -4 -4
-8 -10 -8 -17 0 -11 33 11 56 12 13 19 30 16 38 -7 19 -38 21 -55 4 -15 -15
-24 -6 -16 16 5 13 16 16 48 14 38 -3 41 -6 44 -33z m-1777 -21 c21 -25 17
-93 -6 -110 -65 -48 -143 48 -85 106 24 24 72 26 91 4z m207 4 c6 -7 12 -37
13 -67 l3 -53 -43 -4 c-47 -5 -71 8 -71 37 0 22 37 49 67 49 13 0 23 5 23 10
0 17 -31 24 -51 12 -24 -15 -29 -15 -29 2 0 26 69 36 88 14z m122 3 c0 -5 -11
-12 -25 -15 -23 -6 -25 -11 -25 -61 0 -30 -4 -55 -10 -55 -6 0 -10 30 -10 70
l0 70 35 0 c19 0 35 -4 35 -9z m114 -10 c29 -32 17 -56 -32 -59 -27 -2 -42 -8
-42 -17 0 -18 31 -27 67 -20 27 6 27 6 9 -9 -63 -51 -138 34 -90 102 19 28 64
29 88 3z m136 -27 c14 -50 22 -48 40 9 11 35 30 51 30 25 0 -32 -56 -171 -73
-180 -28 -15 -34 -1 -9 22 12 12 22 22 22 23 0 1 -11 33 -25 71 -29 81 -29 76
-11 76 7 0 19 -20 26 -46z m204 24 c34 -49 5 -118 -49 -118 -34 0 -65 33 -65
70 0 62 81 96 114 48z m68 -29 c6 -59 20 -79 46 -63 12 8 18 27 20 63 5 76 22
62 22 -19 l0 -70 -45 0 c-54 0 -65 16 -65 89 0 66 16 66 22 0z m436 39 c7 -7
12 -37 12 -68 l0 -56 -42 -1 c-49 -2 -68 10 -68 43 0 25 26 44 59 44 12 0 21
7 21 15 0 17 -35 21 -45 5 -3 -5 -13 -10 -21 -10 -12 0 -12 4 -4 20 12 23 68
28 88 8z m66 0 c2 -7 8 -29 13 -48 l9 -35 15 45 c19 54 39 58 52 10 13 -53 24
-57 32 -11 6 38 20 59 31 49 9 -10 -31 -138 -43 -138 -7 0 -18 20 -25 45 -7
25 -15 45 -19 45 -3 0 -12 -20 -19 -45 -7 -25 -18 -45 -25 -45 -10 0 -45 106
-45 135 0 11 21 5 24 -7z m294 -77 c-3 -81 -4 -86 -30 -100 -21 -12 -31 -13
-53 -3 -14 7 -23 16 -20 22 3 6 15 5 31 -2 22 -10 28 -9 40 6 17 23 10 36 -15
29 -52 -13 -90 62 -57 112 14 21 24 25 62 23 l45 -1 -3 -86z m92 -36 c0 -8 -4
-15 -10 -15 -5 0 -10 7 -10 15 0 8 5 15 10 15 6 0 10 -7 10 -15z"/>
<path d="M2887 3615 c-22 -20 -39 -25 -82 -25 -46 0 -55 -3 -60 -21 -4 -11 -5
-22 -3 -23 1 -1 15 -10 31 -19 37 -24 38 -73 1 -87 -14 -6 -36 -10 -50 -10
-45 0 -27 -41 28 -64 20 -9 39 -25 43 -36 9 -27 50 -26 69 2 9 13 16 43 16 70
0 67 14 97 55 114 38 15 42 23 23 42 -10 10 -10 17 0 33 10 16 10 24 1 35 -17
20 -40 17 -72 -11z"/>
<path d="M1470 2820 c-31 -31 -24 -57 31 -115 l51 -55 -51 -56 c-54 -59 -60
-77 -35 -112 26 -38 65 -29 123 28 l52 51 51 -51 c57 -55 92 -64 121 -32 30
33 21 64 -33 120 l-51 51 51 52 c57 58 66 97 28 123 -36 26 -56 19 -114 -36
l-56 -53 -39 42 c-62 67 -94 78 -129 43z"/>
<path d="M2382 2820 c-40 -37 -30 -74 40 -146 l61 -64 -61 -64 c-70 -73 -79
-107 -39 -144 40 -38 72 -29 143 40 l64 61 64 -61 c49 -47 71 -62 93 -62 36 0
73 37 73 73 0 25 -55 98 -103 138 l-22 17 63 65 c69 72 79 110 42 147 -37 37
-75 27 -144 -40 l-63 -60 -62 60 c-69 67 -108 78 -149 40z"/>
<path d="M1984 1610 c-67 -14 -135 -54 -191 -113 -71 -74 -97 -159 -97 -307 0
-114 12 -155 62 -206 107 -108 345 -91 500 34 67 54 82 72 114 140 28 58 30
70 26 146 -3 63 -10 92 -28 122 -58 97 -152 162 -265 183 -65 12 -63 12 -121
1z"/>
<path d="M2691 411 c-23 -42 0 -88 38 -76 19 6 22 13 19 48 -2 34 -7 43 -25
45 -14 2 -26 -4 -32 -17z"/>
<path d="M1547 423 c-11 -10 -8 -81 4 -88 5 -4 21 -4 35 -1 20 5 24 12 24 45
0 26 -5 41 -16 45 -20 8 -39 8 -47 -1z"/>
<path d="M1763 364 c-8 -22 11 -37 36 -29 31 10 28 45 -4 45 -14 0 -28 -7 -32
-16z"/>
<path d="M1995 420 c-10 -16 2 -25 31 -25 17 -1 24 4 22 15 -4 18 -43 26 -53
10z"/>
<path d="M2333 423 c-7 -2 -13 -22 -13 -43 0 -29 5 -40 19 -45 34 -10 51 4 51
45 0 44 -20 59 -57 43z"/>
<path d="M2843 373 c-18 -7 -16 -30 3 -37 21 -8 20 -8 38 10 26 26 -1 44 -41
27z"/>
<path d="M3187 423 c-4 -3 -7 -23 -7 -44 0 -40 20 -56 54 -43 22 8 22 79 0 88
-20 8 -39 8 -47 -1z"/>
</g>
</svg>
